<svg width="24" height="24" viewBox="0 0 24 24" fill="none" xmlns="http://www.w3.org/2000/svg">
<path d="M11.8182 0C9.48077 0 7.19585 0.693124 5.25236 1.99172C3.30887 3.29032 1.7941 5.13607 0.899611 7.29556C0.00512064 9.45505 -0.228919 11.8313 0.227088 14.1238C0.683096 16.4163 1.80867 18.5221 3.46147 20.1749C5.11427 21.8277 7.22007 22.9533 9.51257 23.4093C11.8051 23.8653 14.1813 23.6312 16.3408 22.7368C18.5003 21.8423 20.346 20.3275 21.6446 18.384C22.9432 16.4405 23.6364 14.1556 23.6364 11.8182C23.6331 8.68482 22.3869 5.68074 20.1712 3.46512C17.9556 1.2495 14.9515 0.00330889 11.8182 0ZM15.9091 8.18182C16.1788 8.18182 16.4424 8.26179 16.6667 8.41163C16.8909 8.56147 17.0657 8.77444 17.1689 9.02361C17.2721 9.27279 17.2991 9.54697 17.2465 9.81149C17.1939 10.076 17.064 10.319 16.8733 10.5097C16.6826 10.7004 16.4396 10.8303 16.1751 10.8829C15.9106 10.9355 15.6364 10.9085 15.3873 10.8053C15.1381 10.7021 14.9251 10.5273 14.7753 10.3031C14.6254 10.0788 14.5455 9.81516 14.5455 9.54545C14.5455 9.1838 14.6891 8.83695 14.9449 8.58122C15.2006 8.32549 15.5474 8.18182 15.9091 8.18182ZM7.72728 8.18182C7.99698 8.18182 8.26062 8.26179 8.48487 8.41163C8.70912 8.56147 8.8839 8.77444 8.98711 9.02361C9.09032 9.27279 9.11733 9.54697 9.06471 9.81149C9.0121 10.076 8.88222 10.319 8.69151 10.5097C8.50081 10.7004 8.25783 10.8303 7.99331 10.8829C7.72879 10.9355 7.45461 10.9085 7.20544 10.8053C6.95627 10.7021 6.74329 10.5273 6.59346 10.3031C6.44362 10.0788 6.36364 9.81516 6.36364 9.54545C6.36364 9.1838 6.50731 8.83695 6.76304 8.58122C7.01877 8.32549 7.36562 8.18182 7.72728 8.18182ZM17.9159 17.0068C17.8315 17.0913 17.7312 17.1584 17.6209 17.2041C17.5105 17.2499 17.3922 17.2734 17.2727 17.2734C17.1533 17.2734 17.035 17.2499 16.9246 17.2041C16.8142 17.1584 16.714 17.0913 16.6296 17.0068L15.4546 15.8307L14.2796 17.0068C14.1951 17.0913 14.0949 17.1584 13.9845 17.2041C13.8741 17.2499 13.7558 17.2734 13.6364 17.2734C13.5169 17.2734 13.3986 17.2499 13.2882 17.2041C13.1779 17.1584 13.0776 17.0913 12.9932 17.0068L11.8182 15.8307L10.6432 17.0068C10.5588 17.0913 10.4585 17.1584 10.3481 17.2041C10.2378 17.2499 10.1195 17.2734 10 17.2734C9.88054 17.2734 9.76224 17.2499 9.65188 17.2041C9.54152 17.1584 9.44125 17.0913 9.35682 17.0068L8.18182 15.8307L7.00682 17.0068C6.83624 17.1774 6.60488 17.2732 6.36364 17.2732C6.1224 17.2732 5.89104 17.1774 5.72046 17.0068C5.54988 16.8362 5.45405 16.6049 5.45405 16.3636C5.45405 16.1224 5.54988 15.891 5.72046 15.7205L7.53864 13.9023C7.62307 13.8177 7.72333 13.7507 7.8337 13.7049C7.94406 13.6592 8.06236 13.6356 8.18182 13.6356C8.30129 13.6356 8.41959 13.6592 8.52995 13.7049C8.64031 13.7507 8.74058 13.8177 8.82501 13.9023L10 15.0784L11.175 13.9023C11.2594 13.8177 11.3597 13.7507 11.4701 13.7049C11.5804 13.6592 11.6987 13.6356 11.8182 13.6356C11.9377 13.6356 12.056 13.6592 12.1663 13.7049C12.2767 13.7507 12.3769 13.8177 12.4614 13.9023L13.6364 15.0784L14.8114 13.9023C14.8958 13.8177 14.9961 13.7507 15.1064 13.7049C15.2168 13.6592 15.3351 13.6356 15.4546 13.6356C15.574 13.6356 15.6923 13.6592 15.8027 13.7049C15.913 13.7507 16.0133 13.8177 16.0977 13.9023L17.9159 15.7205C18.0004 15.8049 18.0675 15.9051 18.1132 16.0155C18.159 16.1259 18.1825 16.2442 18.1825 16.3636C18.1825 16.4831 18.159 16.6014 18.1132 16.7118C18.0675 16.8221 18.0004 16.9224 17.9159 17.0068Z" fill="white"/>
</svg>
