<svg width="28" height="17" viewBox="0 0 28 17" fill="none" xmlns="http://www.w3.org/2000/svg">
<path d="M18.1818 8.18182C18.1818 9.08082 17.9152 9.95964 17.4158 10.7071C16.9163 11.4546 16.2064 12.0372 15.3758 12.3813C14.5453 12.7253 13.6313 12.8153 12.7496 12.6399C11.8679 12.4645 11.0579 12.0316 10.4222 11.3959C9.78655 10.7602 9.35364 9.95032 9.17825 9.06859C9.00286 8.18686 9.09288 7.27292 9.43691 6.44235C9.78095 5.61177 10.3635 4.90187 11.111 4.40241C11.8585 3.90295 12.7374 3.63636 13.6364 3.63636C14.8419 3.63636 15.998 4.11526 16.8505 4.9677C17.7029 5.82013 18.1818 6.97629 18.1818 8.18182ZM27.2727 0.909091V15.4545C27.2727 15.6957 27.1769 15.9269 27.0065 16.0974C26.836 16.2679 26.6047 16.3636 26.3636 16.3636H0.909091C0.667985 16.3636 0.436754 16.2679 0.266267 16.0974C0.0957789 15.9269 0 15.6957 0 15.4545V0.909091C0 0.667985 0.0957789 0.436754 0.266267 0.266267C0.436754 0.0957791 0.667985 0 0.909091 0H26.3636C26.6047 0 26.836 0.0957791 27.0065 0.266267C27.1769 0.436754 27.2727 0.667985 27.2727 0.909091ZM25.4545 6.17614C24.4223 5.87091 23.4828 5.31228 22.7216 4.55112C21.9604 3.78995 21.4018 2.85045 21.0966 1.81818H6.17614C5.87091 2.85045 5.31228 3.78995 4.55112 4.55112C3.78995 5.31228 2.85045 5.87091 1.81818 6.17614V10.1875C2.85045 10.4927 3.78995 11.0514 4.55112 11.8125C5.31228 12.5737 5.87091 13.5132 6.17614 14.5455H21.0966C21.4018 13.5132 21.9604 12.5737 22.7216 11.8125C23.4828 11.0514 24.4223 10.4927 25.4545 10.1875V6.17614Z" fill="white"/>
</svg>
