<svg width="30" height="26" viewBox="0 0 30 26" fill="none" xmlns="http://www.w3.org/2000/svg">
<path d="M19.9997 20.8226C20.6268 20.5755 21.2346 20.2819 21.8179 19.9442V24.5453C21.8179 24.7864 21.7221 25.0176 21.5516 25.1881C21.3811 25.3586 21.1499 25.4544 20.9088 25.4544C20.6677 25.4544 20.4365 25.3586 20.266 25.1881C20.0955 25.0176 19.9997 24.7864 19.9997 24.5453V20.8226ZM21.3361 10.7737L14.9724 7.3794C14.7601 7.27095 14.5137 7.25025 14.2863 7.32175C14.0588 7.39325 13.8686 7.55123 13.7565 7.76166C13.6445 7.97208 13.6195 8.21811 13.6871 8.44673C13.7547 8.67536 13.9094 8.86828 14.1179 8.98394L19.4315 11.818L21.3634 10.7885L21.3361 10.7737ZM28.6088 7.3794L14.9724 0.106667C14.8409 0.0366304 14.6942 0 14.5452 0C14.3962 0 14.2494 0.0366304 14.1179 0.106667L0.481534 7.3794C0.336085 7.45691 0.214444 7.57251 0.129625 7.71382C0.0448061 7.85514 0 8.01685 0 8.18167C0 8.34648 0.0448061 8.5082 0.129625 8.64951C0.214444 8.79083 0.336085 8.90643 0.481534 8.98394L3.63608 10.6669V16.1692C3.63513 16.6157 3.79948 17.0468 4.09744 17.3794C5.58608 19.0374 8.92131 21.818 14.5452 21.818C16.4099 21.8335 18.2607 21.4957 19.9997 20.8226V12.1214L19.4315 11.818L14.5452 14.4237L4.9804 9.31803L2.84063 8.18167L14.5452 1.93962L26.2497 8.18167L24.1156 9.31803H24.1088L21.3634 10.7885C21.5016 10.8683 21.6164 10.9831 21.6962 11.1213C21.7759 11.2596 21.8179 11.4164 21.8179 11.576V19.9442C23.0034 19.2598 24.0746 18.3945 24.9929 17.3794C25.2909 17.0468 25.4552 16.6157 25.4543 16.1692V10.6669L28.6088 8.98394C28.7543 8.90643 28.8759 8.79083 28.9607 8.64951C29.0455 8.5082 29.0903 8.34648 29.0903 8.18167C29.0903 8.01685 29.0455 7.85514 28.9607 7.71382C28.8759 7.57251 28.7543 7.45691 28.6088 7.3794Z" fill="white"/>
</svg>
