<svg width="24" height="24" viewBox="0 0 24 24" fill="none" xmlns="http://www.w3.org/2000/svg">
<path d="M11.8182 0C9.48077 0 7.19585 0.693124 5.25236 1.99172C3.30887 3.29032 1.7941 5.13607 0.899611 7.29556C0.00512064 9.45505 -0.228919 11.8313 0.227088 14.1238C0.683096 16.4163 1.80867 18.5221 3.46147 20.1749C5.11427 21.8277 7.22007 22.9533 9.51257 23.4093C11.8051 23.8653 14.1813 23.6312 16.3408 22.7368C18.5003 21.8423 20.346 20.3275 21.6446 18.384C22.9432 16.4405 23.6364 14.1556 23.6364 11.8182C23.6331 8.68482 22.3869 5.68074 20.1712 3.46512C17.9556 1.2495 14.9515 0.00330889 11.8182 0ZM7.72728 8.18182C7.99698 8.18182 8.26062 8.26179 8.48487 8.41163C8.70912 8.56147 8.8839 8.77444 8.98711 9.02361C9.09032 9.27279 9.11733 9.54697 9.06471 9.81149C9.0121 10.076 8.88222 10.319 8.69151 10.5097C8.50081 10.7004 8.25783 10.8303 7.99331 10.8829C7.72879 10.9355 7.45461 10.9085 7.20544 10.8053C6.95627 10.7021 6.74329 10.5273 6.59346 10.3031C6.44362 10.0788 6.36364 9.81516 6.36364 9.54545C6.36364 9.1838 6.50731 8.83695 6.76304 8.58122C7.01877 8.32549 7.36562 8.18182 7.72728 8.18182ZM16.8182 18.0591C16.6096 18.1794 16.3617 18.2121 16.1291 18.1499C15.8964 18.0876 15.698 17.9357 15.5773 17.7273C14.7284 16.2602 13.3943 15.4545 11.8182 15.4545C10.2421 15.4545 8.90796 16.2614 8.0591 17.7273C8.00226 17.8359 7.92404 17.9319 7.82914 18.0096C7.73424 18.0872 7.62461 18.1448 7.50686 18.179C7.3891 18.2131 7.26566 18.2231 7.14394 18.2083C7.02223 18.1936 6.90477 18.1543 6.79862 18.093C6.69247 18.0316 6.59982 17.9494 6.52626 17.8513C6.4527 17.7532 6.39975 17.6413 6.37058 17.5222C6.34141 17.4031 6.33663 17.2793 6.35653 17.1583C6.37643 17.0374 6.42059 16.9217 6.48637 16.8182C7.65569 14.7966 9.59887 13.6364 11.8182 13.6364C14.0375 13.6364 15.9807 14.7955 17.15 16.8182C17.2703 17.0268 17.303 17.2746 17.2408 17.5073C17.1786 17.7399 17.0266 17.9384 16.8182 18.0591ZM15.9091 10.9091C15.6394 10.9091 15.3758 10.8291 15.1515 10.6793C14.9273 10.5294 14.7525 10.3165 14.6493 10.0673C14.5461 9.81812 14.519 9.54394 14.5717 9.27942C14.6243 9.0149 14.7542 8.77193 14.9449 8.58122C15.1356 8.39051 15.3785 8.26064 15.6431 8.20802C15.9076 8.1554 16.1818 8.18241 16.4309 8.28562C16.6801 8.38883 16.8931 8.56361 17.0429 8.78786C17.1928 9.01211 17.2727 9.27575 17.2727 9.54545C17.2727 9.90711 17.1291 10.254 16.8733 10.5097C16.6176 10.7654 16.2708 10.9091 15.9091 10.9091Z" fill="white"/>
</svg>
