<svg width="26" height="22" viewBox="0 0 26 22" fill="none" xmlns="http://www.w3.org/2000/svg">
<path d="M25.433 7.6722C24.8432 15.3336 13.6489 21.4483 13.1602 21.7108C13.0278 21.7821 12.8799 21.8193 12.7295 21.8193C12.5792 21.8193 12.4312 21.7821 12.2989 21.7108C11.7955 21.4415 2.16323e-07 15.0017 2.16323e-07 7.0472C-0.000316003 5.77092 0.346058 4.51852 1.00213 3.42377C1.6582 2.32902 2.59931 1.43304 3.72497 0.831537C4.85062 0.230031 6.11852 -0.0544115 7.39325 0.008591C8.66797 0.0715935 9.90165 0.479674 10.9625 1.18925C11.0187 1.22652 11.0659 1.27585 11.1007 1.33363C11.1355 1.39142 11.157 1.45623 11.1636 1.52336C11.1703 1.59048 11.1619 1.65824 11.1391 1.72173C11.1163 1.78521 11.0796 1.84282 11.0318 1.89038L9.51364 3.41084C9.34328 3.58131 9.24758 3.81245 9.24758 4.05345C9.24758 4.29445 9.34328 4.52559 9.51364 4.69607L13.2102 8.39266L10.7955 10.7972C10.7075 10.8808 10.6371 10.9811 10.5886 11.0923C10.54 11.2035 10.5141 11.3233 10.5126 11.4446C10.511 11.566 10.5338 11.6864 10.5795 11.7988C10.6252 11.9112 10.693 12.0133 10.7788 12.0991C10.8646 12.1849 10.9667 12.2527 11.0791 12.2984C11.1915 12.3441 11.3119 12.3668 11.4332 12.3653C11.5546 12.3637 11.6744 12.3379 11.7856 12.2893C11.8968 12.2407 11.9971 12.1704 12.0807 12.0824L15.1352 9.02902C15.3056 8.85855 15.4013 8.62741 15.4013 8.38641C15.4013 8.1454 15.3056 7.91426 15.1352 7.74379L11.4432 4.05061L13.4284 2.06538C14.0866 1.40381 14.8704 0.880455 15.7337 0.526071C16.597 0.171687 17.5225 -0.00657897 18.4557 0.00174709C22.583 0.0278835 25.7489 3.55743 25.433 7.6722Z" fill="white"/>
</svg>
