<svg width="22" height="23" viewBox="0 0 22 23" fill="none" xmlns="http://www.w3.org/2000/svg">
<path d="M19.8864 0H1.93182C1.41947 0 0.928102 0.20353 0.565816 0.565816C0.20353 0.928102 0 1.41947 0 1.93182V7.52386C0.000479103 7.8951 0.107912 8.25833 0.309442 8.57009C0.510972 8.88186 0.798064 9.12896 1.13636 9.28182L8.25 12.5148C7.1967 13.1042 6.36866 14.0263 5.89556 15.1367C5.42246 16.2472 5.33103 17.4831 5.6356 18.6511C5.94016 19.819 6.62351 20.853 7.57862 21.5909C8.53373 22.3289 9.70664 22.7293 10.9136 22.7293C12.1206 22.7293 13.2935 22.3289 14.2487 21.5909C15.2038 20.853 15.8871 19.819 16.1917 18.6511C16.4962 17.4831 16.4048 16.2472 15.9317 15.1367C15.4586 14.0263 14.6306 13.1042 13.5773 12.5148L20.6818 9.28182C21.0201 9.12896 21.3072 8.88186 21.5087 8.57009C21.7103 8.25833 21.8177 7.8951 21.8182 7.52386V1.93182C21.8182 1.41947 21.6147 0.928102 21.2524 0.565816C20.8901 0.20353 20.3987 0 19.8864 0ZM7.27273 1.81818H14.5455V10.0761L10.9091 11.7284L7.27273 10.0761V1.81818ZM10.9091 20.9091C10.1899 20.9091 9.48683 20.6958 8.88884 20.2963C8.29084 19.8967 7.82476 19.3288 7.54953 18.6643C7.2743 17.9998 7.20229 17.2687 7.3426 16.5633C7.48291 15.8579 7.82924 15.21 8.33779 14.7014C8.84635 14.1929 9.49429 13.8465 10.1997 13.7062C10.9051 13.5659 11.6362 13.6379 12.3007 13.9132C12.9651 14.1884 13.533 14.6545 13.9326 15.2525C14.3322 15.8505 14.5455 16.5535 14.5455 17.2727C14.5455 18.2372 14.1623 19.1621 13.4804 19.844C12.7984 20.526 11.8735 20.9091 10.9091 20.9091Z" fill="white"/>
</svg>
