<svg width="21" height="21" viewBox="0 0 21 21" fill="none" xmlns="http://www.w3.org/2000/svg">
<path d="M8.80455 2.43821V8.9821H2.43821C1.56107 8.9821 0.85 9.69317 0.85 10.5703C0.85 11.4475 1.56107 12.1585 2.43821 12.1585H8.80455V18.7024C8.80455 19.5796 9.51561 20.2906 10.3928 20.2906C11.2699 20.2906 11.981 19.5796 11.981 18.7024V12.1585H18.3473C19.2244 12.1585 19.9355 11.4475 19.9355 10.5703C19.9355 9.69317 19.2244 8.9821 18.3473 8.9821H11.981V2.43821C11.981 1.56107 11.2699 0.85 10.3928 0.85C9.51561 0.85 8.80455 1.56107 8.80455 2.43821Z" fill="white" stroke="white" stroke-width="0.3"/>
</svg>
