<svg width="10" height="26" viewBox="0 0 10 26" fill="none" xmlns="http://www.w3.org/2000/svg">
<path d="M2.72727 25.4545V17.7273H0V9.10227C0 8.53977 0.200284 8.05824 0.600852 7.65767C1.00142 7.2571 1.48295 7.05682 2.04545 7.05682H7.5C8.0625 7.05682 8.54403 7.2571 8.9446 7.65767C9.34517 8.05824 9.54545 8.53977 9.54545 9.10227V17.7273H6.81818V25.4545H2.72727ZM4.77545 4.97727C4.09182 4.97727 3.50568 4.73386 3.01705 4.24705C2.52841 3.76021 2.28409 3.17498 2.28409 2.49136C2.28409 1.80773 2.5275 1.22159 3.01432 0.732955C3.50116 0.244318 4.08639 0 4.77 0C5.45364 0 6.03977 0.243409 6.52841 0.730227C7.01705 1.21707 7.26136 1.80229 7.26136 2.48591C7.26136 3.16954 7.01796 3.75568 6.53114 4.24432C6.0443 4.73295 5.45907 4.97727 4.77545 4.97727Z" fill="white"/>
</svg>
