<svg width="13" height="26" viewBox="0 0 13 26" fill="none" xmlns="http://www.w3.org/2000/svg">
<path d="M4.09091 25.4545V19.7727H0L3.47727 8.59091C3.65909 8.02273 4 7.58523 4.5 7.27841C5 6.97159 5.54545 6.81818 6.13636 6.81818C6.72727 6.81818 7.27273 6.97159 7.77273 7.27841C8.27273 7.58523 8.61364 8.02273 8.79545 8.59091L12.2727 19.7727H8.18182V25.4545H4.09091ZM6.13909 4.97727C5.45545 4.97727 4.86932 4.73386 4.38068 4.24705C3.89205 3.76021 3.64773 3.17498 3.64773 2.49136C3.64773 1.80773 3.89114 1.22159 4.37795 0.732955C4.8648 0.244318 5.45002 0 6.13364 0C6.81727 0 7.40341 0.243409 7.89205 0.730227C8.38068 1.21707 8.625 1.80229 8.625 2.48591C8.625 3.16954 8.38159 3.75568 7.89477 4.24432C7.40793 4.73295 6.8227 4.97727 6.13909 4.97727Z" fill="white"/>
</svg>
