<svg width="24" height="24" viewBox="0 0 24 24" fill="none" xmlns="http://www.w3.org/2000/svg">
<path d="M23.302 3.39669C23.1722 2.63164 22.8077 1.92588 22.259 1.37718C21.7103 0.828473 21.0045 0.463982 20.2395 0.33419C16.5599 -0.289674 9.62696 -0.574901 4.52696 4.52737C-0.573037 9.62965 -0.290082 16.5615 0.333781 20.2399C0.463919 21.0057 0.829246 21.7121 1.37905 22.2608C1.92886 22.8096 2.63588 23.1737 3.40196 23.3024C4.69077 23.5222 5.99569 23.6339 7.3031 23.6365C10.9497 23.6365 15.4906 22.7274 19.1088 19.1092C24.2099 14.0092 23.9258 7.0751 23.302 3.39669ZM3.69969 21.5115C3.3063 21.4446 2.94342 21.2571 2.66126 20.9749C2.3791 20.6927 2.19159 20.3299 2.12469 19.9365C1.81279 18.178 1.73218 16.3863 1.88492 14.6069L9.02924 21.7512C7.24986 21.904 5.45816 21.8234 3.69969 21.5115ZM16.0951 8.82624L14.4656 10.4546L15.1861 11.1751C15.2759 11.2582 15.348 11.3586 15.3981 11.4703C15.4482 11.5819 15.4752 11.7026 15.4776 11.8249C15.4799 11.9473 15.4575 12.0689 15.4118 12.1824C15.366 12.2959 15.2978 12.399 15.2112 12.4855C15.1246 12.572 15.0215 12.6401 14.9079 12.6858C14.7944 12.7315 14.6728 12.7537 14.5504 12.7513C14.428 12.7488 14.3074 12.7217 14.1958 12.6715C14.0842 12.6213 13.9839 12.5491 13.9008 12.4592L13.1815 11.7399L11.7395 13.1819L12.4599 13.9024C12.5498 13.9854 12.622 14.0857 12.6722 14.1974C12.7224 14.309 12.7496 14.4296 12.752 14.552C12.7545 14.6743 12.7322 14.7959 12.6865 14.9095C12.6408 15.023 12.5727 15.1262 12.4862 15.2127C12.3997 15.2993 12.2966 15.3675 12.1831 15.4133C12.0696 15.4591 11.948 15.4815 11.8257 15.4791C11.7033 15.4768 11.5827 15.4497 11.471 15.3996C11.3593 15.3496 11.2589 15.2774 11.1758 15.1876L10.4542 14.466L8.82469 16.0956C8.74111 16.1835 8.64077 16.2539 8.52958 16.3025C8.41838 16.351 8.29859 16.3769 8.17726 16.3784C8.05593 16.38 7.93551 16.3572 7.82311 16.3115C7.71071 16.2658 7.6086 16.198 7.52279 16.1122C7.43699 16.0264 7.36924 15.9243 7.32352 15.8119C7.2778 15.6995 7.25505 15.5791 7.2566 15.4578C7.25816 15.3364 7.28398 15.2166 7.33256 15.1054C7.38114 14.9942 7.45149 14.8939 7.53946 14.8103L9.17014 13.1819L8.44969 12.4615C8.29029 12.2889 8.20389 12.0613 8.2086 11.8264C8.21331 11.5915 8.30877 11.3676 8.47497 11.2015C8.64116 11.0355 8.86519 10.9402 9.10008 10.9357C9.33497 10.9312 9.56248 11.0178 9.73492 11.1774L10.4554 11.8978L11.8963 10.4546L11.1758 9.73419C11.0163 9.56175 10.9297 9.33424 10.9342 9.09935C10.9387 8.86446 11.0339 8.64044 11.2 8.47424C11.366 8.30805 11.59 8.21259 11.8249 8.20787C12.0597 8.20316 12.2873 8.28956 12.4599 8.44896L13.1815 9.17055L14.8111 7.54101C14.8946 7.45304 14.995 7.38269 15.1062 7.33411C15.2174 7.28553 15.3372 7.2597 15.4585 7.25815C15.5798 7.25659 15.7002 7.27935 15.8126 7.32506C15.925 7.37078 16.0271 7.43854 16.1129 7.52434C16.1988 7.61014 16.2665 7.71225 16.3122 7.82465C16.3579 7.93705 16.3807 8.05747 16.3791 8.1788C16.3776 8.30013 16.3518 8.41993 16.3032 8.53112C16.2546 8.64232 16.1843 8.74266 16.0963 8.82624H16.0951ZM21.7508 9.02964L14.6065 1.88533C15.1474 1.83533 15.7111 1.80692 16.3008 1.80692C17.5197 1.81122 18.7361 1.91765 19.9372 2.1251C20.3304 2.19222 20.693 2.37981 20.9749 2.66196C21.2569 2.94411 21.4442 3.30687 21.5111 3.7001C21.823 5.45857 21.9036 7.25027 21.7508 9.02964Z" fill="white"/>
</svg>
