<svg width="26" height="26" viewBox="0 0 26 26" fill="none" xmlns="http://www.w3.org/2000/svg">
<path d="M12.7273 25.4545C10.9667 25.4545 9.31212 25.1205 7.76364 24.4523C6.21515 23.7841 4.86818 22.8773 3.72273 21.7318C2.57727 20.5864 1.67045 19.2394 1.00227 17.6909C0.334091 16.1424 0 14.4879 0 12.7273C0 10.9667 0.334091 9.31212 1.00227 7.76364C1.67045 6.21515 2.57727 4.86818 3.72273 3.72273C4.86818 2.57727 6.21515 1.67045 7.76364 1.00227C9.31212 0.334091 10.9667 0 12.7273 0C14.4879 0 16.1424 0.334091 17.6909 1.00227C19.2394 1.67045 20.5864 2.57727 21.7318 3.72273C22.8773 4.86818 23.7841 6.21515 24.4523 7.76364C25.1205 9.31212 25.4545 10.9667 25.4545 12.7273C25.4545 14.4879 25.1205 16.1424 24.4523 17.6909C23.7841 19.2394 22.8773 20.5864 21.7318 21.7318C20.5864 22.8773 19.2394 23.7841 17.6909 24.4523C16.1424 25.1205 14.4879 25.4545 12.7273 25.4545ZM6.93636 13.4909L11.4864 10.1818L6.93636 6.87273L5.79091 8.4L8.24091 10.1818L5.79091 11.9636L6.93636 13.4909ZM10.8182 19.1545L12.7273 17.2455L14.6364 19.1545L16.5455 17.2455L17.7864 18.4864L19.1227 17.15L16.5455 14.5727L14.6364 16.4818L12.7273 14.5727L10.8182 16.4818L8.90909 14.5727L6.33182 17.15L7.66818 18.4864L8.90909 17.2455L10.8182 19.1545ZM18.5182 13.4909L19.6636 11.9636L17.2136 10.1818L19.6636 8.4L18.5182 6.87273L13.9682 10.1818L18.5182 13.4909Z" fill="white"/>
</svg>
